<svg xmlns="http://www.w3.org/2000/svg" width="1120" height="572" viewBox="0 0 1120 572" font-family='-apple-system, BlinkMacSystemFont, "Segoe UI", Helvetica, Arial, sans-serif'>
<defs>
<marker id="a-0969da" viewBox="0 0 8 8" refX="7" refY="4" markerWidth="8" markerHeight="8" orient="auto-start-reverse"><path d="M0,0 L8,4 L0,8 z" fill="#0969da"/></marker>
<marker id="a-57606a" viewBox="0 0 8 8" refX="7" refY="4" markerWidth="8" markerHeight="8" orient="auto-start-reverse"><path d="M0,0 L8,4 L0,8 z" fill="#57606a"/></marker>
<marker id="a-1a7f37" viewBox="0 0 8 8" refX="7" refY="4" markerWidth="8" markerHeight="8" orient="auto-start-reverse"><path d="M0,0 L8,4 L0,8 z" fill="#1a7f37"/></marker>
<marker id="a-8250df" viewBox="0 0 8 8" refX="7" refY="4" markerWidth="8" markerHeight="8" orient="auto-start-reverse"><path d="M0,0 L8,4 L0,8 z" fill="#8250df"/></marker>
</defs>
<rect x="250" y="40" width="840" height="128" rx="12" fill="#f6f8fa" stroke="#d0d7de"/>
<text x="266" y="62" text-anchor="start" font-size="11" font-weight="700" fill="#0969da">TOOL ACCESS</text>
<rect x="250" y="200" width="840" height="128" rx="12" fill="#f6f8fa" stroke="#d0d7de"/>
<text x="266" y="222" text-anchor="start" font-size="11" font-weight="700" fill="#8250df">AGENT RUNTIME</text>
<rect x="250" y="360" width="840" height="128" rx="12" fill="#f6f8fa" stroke="#d0d7de"/>
<text x="266" y="382" text-anchor="start" font-size="11" font-weight="700" fill="#1a7f37">MODEL RUNTIME</text>
<text x="115" y="30" text-anchor="middle" font-size="11" font-weight="700" fill="#57606a">WHO USES IT</text>
<rect x="30" y="76" width="170" height="72" rx="8" fill="#ffffff" stroke="#57606a" stroke-width="1.5"/>
<text x="115.0" y="106.5" text-anchor="middle" font-size="14" font-weight="600" fill="#1f2328">MCP clients</text>
<text x="115.0" y="123.5" text-anchor="middle" font-size="11.5" font-weight="400" fill="#57606a">Claude Code, Cursor, …</text>
<rect x="30" y="188" width="170" height="72" rx="8" fill="#ffffff" stroke="#57606a" stroke-width="1.5"/>
<text x="115.0" y="218.5" text-anchor="middle" font-size="14" font-weight="600" fill="#1f2328">Backstage portal</text>
<text x="115.0" y="235.5" text-anchor="middle" font-size="11.5" font-weight="400" fill="#57606a">the human frontend</text>
<rect x="30" y="272" width="170" height="72" rx="8" fill="#ffffff" stroke="#57606a" stroke-width="1.5"/>
<text x="115.0" y="302.5" text-anchor="middle" font-size="14" font-weight="600" fill="#1f2328">Slack</text>
<text x="115.0" y="319.5" text-anchor="middle" font-size="11.5" font-weight="400" fill="#57606a">via klaus-gateway</text>
<rect x="280" y="76" width="220" height="72" rx="8" fill="#ffffff" stroke="#0969da" stroke-width="1.5"/>
<text x="390.0" y="106.5" text-anchor="middle" font-size="14" font-weight="600" fill="#1f2328">agentgateway</text>
<text x="390.0" y="123.5" text-anchor="middle" font-size="11.5" font-weight="400" fill="#57606a">MCP · A2A · gRPC edge</text>
<rect x="560" y="76" width="220" height="72" rx="8" fill="#ffffff" stroke="#0969da" stroke-width="1.5"/>
<text x="670.0" y="99.0" text-anchor="middle" font-size="14" font-weight="600" fill="#1f2328">muster</text>
<text x="670.0" y="116.0" text-anchor="middle" font-size="11.5" font-weight="400" fill="#57606a">one MCP endpoint</text>
<text x="670.0" y="131.0" text-anchor="middle" font-size="11.5" font-weight="400" fill="#57606a">per-user sign-in · toolsets</text>
<rect x="840" y="76" width="220" height="72" rx="8" fill="#ffffff" stroke="#0969da" stroke-width="1.5"/>
<text x="950.0" y="99.0" text-anchor="middle" font-size="14" font-weight="600" fill="#1f2328">MCP servers</text>
<text x="950.0" y="116.0" text-anchor="middle" font-size="11.5" font-weight="400" fill="#57606a">Kubernetes · agent-manager</text>
<text x="950.0" y="131.0" text-anchor="middle" font-size="11.5" font-weight="400" fill="#57606a">model-manager · …</text>
<rect x="280" y="236" width="220" height="72" rx="8" fill="#ffffff" stroke="#8250df" stroke-width="1.5"/>
<text x="390.0" y="259.0" text-anchor="middle" font-size="14" font-weight="600" fill="#1f2328">kagent</text>
<text x="390.0" y="276.0" text-anchor="middle" font-size="11.5" font-weight="400" fill="#57606a">agents, templates and</text>
<text x="390.0" y="291.0" text-anchor="middle" font-size="11.5" font-weight="400" fill="#57606a">sessions as CRDs</text>
<rect x="560" y="236" width="220" height="72" rx="8" fill="#ffffff" stroke="#8250df" stroke-width="1.5"/>
<text x="670.0" y="259.0" text-anchor="middle" font-size="14" font-weight="600" fill="#1f2328">Agent Substrate</text>
<text x="670.0" y="276.0" text-anchor="middle" font-size="11.5" font-weight="400" fill="#57606a">each agent in its own</text>
<text x="670.0" y="291.0" text-anchor="middle" font-size="11.5" font-weight="400" fill="#57606a">gVisor sandbox</text>
<rect x="840" y="236" width="220" height="72" rx="8" fill="#ffffff" stroke="#8250df" stroke-width="1.5"/>
<text x="950.0" y="259.0" text-anchor="middle" font-size="14" font-weight="600" fill="#1f2328">Snapshots</text>
<text x="950.0" y="276.0" text-anchor="middle" font-size="11.5" font-weight="400" fill="#57606a">idle agents suspend to</text>
<text x="950.0" y="291.0" text-anchor="middle" font-size="11.5" font-weight="400" fill="#57606a">object storage, then resume</text>
<rect x="280" y="396" width="220" height="72" rx="8" fill="#ffffff" stroke="#1a7f37" stroke-width="1.5"/>
<text x="390.0" y="426.5" text-anchor="middle" font-size="14" font-weight="600" fill="#1f2328">Hosted providers</text>
<text x="390.0" y="443.5" text-anchor="middle" font-size="11.5" font-weight="400" fill="#57606a">Anthropic · OpenAI · Gemini</text>
<rect x="560" y="396" width="220" height="72" rx="8" fill="#ffffff" stroke="#1a7f37" stroke-width="1.5"/>
<text x="670.0" y="419.0" text-anchor="middle" font-size="14" font-weight="600" fill="#1f2328">Models gateway</text>
<text x="670.0" y="436.0" text-anchor="middle" font-size="11.5" font-weight="400" fill="#57606a">agentgateway</text>
<text x="670.0" y="451.0" text-anchor="middle" font-size="11.5" font-weight="400" fill="#57606a">checks the caller's token</text>
<rect x="840" y="396" width="220" height="72" rx="8" fill="#ffffff" stroke="#1a7f37" stroke-width="1.5"/>
<text x="950.0" y="419.0" text-anchor="middle" font-size="14" font-weight="600" fill="#1f2328">llm-d on KServe</text>
<text x="950.0" y="436.0" text-anchor="middle" font-size="11.5" font-weight="400" fill="#57606a">your GPUs</text>
<text x="950.0" y="451.0" text-anchor="middle" font-size="11.5" font-weight="400" fill="#57606a">benchmarked serving presets</text>
<path d="M200,112.0 L280,112.0" fill="none" stroke="#57606a" stroke-width="1.5" marker-end="url(#a-57606a)"/>
<path d="M200,212 L240,212 L240,132 L280,132" fill="none" stroke="#57606a" stroke-width="1.5" marker-end="url(#a-57606a)"/>
<path d="M200,232 L240,232 L240,258 L280,258" fill="none" stroke="#57606a" stroke-width="1.5" marker-end="url(#a-57606a)"/>
<path d="M200,308 L260,308 L260,290 L280,290" fill="none" stroke="#57606a" stroke-width="1.5" marker-end="url(#a-57606a)"/>
<path d="M500,112.0 L560,112.0" fill="none" stroke="#57606a" stroke-width="1.5" marker-end="url(#a-57606a)"/>
<path d="M780,112.0 L840,112.0" fill="none" stroke="#57606a" stroke-width="1.5" marker-end="url(#a-57606a)"/>
<path d="M500,272.0 L560,272.0" fill="none" stroke="#8250df" stroke-width="1.5" marker-end="url(#a-8250df)"/>
<path d="M780,272.0 L840,272.0" fill="none" stroke="#8250df" stroke-width="1.5" marker-end="url(#a-8250df)"/>
<path d="M780,432.0 L840,432.0" fill="none" stroke="#1a7f37" stroke-width="1.5" marker-end="url(#a-1a7f37)"/>
<path d="M670.0,236 L670.0,148" fill="none" stroke="#0969da" stroke-width="1.5" marker-end="url(#a-0969da)"/>
<text x="680.0" y="196.0" text-anchor="start" font-size="11" font-weight="400" fill="#0969da">tools, as the person who asked</text>
<path d="M670.0,308 L670.0,396" fill="none" stroke="#1a7f37" stroke-width="1.5" marker-end="url(#a-1a7f37)"/>
<text x="680.0" y="356.0" text-anchor="start" font-size="11" font-weight="400" fill="#1a7f37">inference</text>
<path d="M620.0,308 L430.0,396" fill="none" stroke="#1a7f37" stroke-width="1.5" marker-end="url(#a-1a7f37)"/>
<rect x="30" y="512" width="1060" height="40" rx="10" fill="#ddf4ff" stroke="#54aeff"/>
<text x="560" y="537" text-anchor="middle" font-size="13" font-weight="600" fill="#1f2328">One OIDC identity end to end  ·  delivered and kept current by Flux  ·  runs on your Kubernetes</text>
</svg>
